{"textures": [{"source": 0, "name": "m_1061046047_61046047_Shadow", "sampler": 0}, {"source": 1, "name": "m_1061046047_61046047_Base", "sampler": 0}, {"source": 2, "name": "m_1061046047_61046047_Metallic_1061046047_61046047_Roughness", "sampler": 0}, {"source": 3, "name": "m_1061046047_61046047_Normal", "sampler": 0}], "accessors": [{"count": 4, "name": "AdeptusEasyPiecesNightstandBlack_Shadow_1_positions", "min": [-0.4018000066280365, 0, -0.4018000066280365], "max": [0.4018000066280365, 0, 0.4018000066280365], "bufferView": 0, "componentType": 5126, "byteOffset": 0, "type": "VEC3"}, {"count": 4, "name": "AdeptusEasyPiecesNightstandBlack_Shadow_1_normals", "min": [0, 1, 0], "max": [0, 1, 0], "bufferView": 0, "componentType": 5126, "byteOffset": 19668, "type": "VEC3"}, {"count": 4, "name": "AdeptusEasyPiecesNightstandBlack_Shadow_1_texcoords", "min": [0, 0], "max": [1, 1], "bufferView": 1, "componentType": 5126, "byteOffset": 0, "type": "VEC2"}, {"count": 6, "name": "AdeptusEasyPiecesNightstandBlack_Shadow_1_0_indices", "min": [0], "max": [3], "bufferView": 2, "componentType": 5123, "byteOffset": 0, "type": "SCALAR"}, {"count": 1635, "name": "AdeptusEasyPiecesNightstandBlack_1_positions", "min": [-0.23800000548362732, 0, -0.17499999701976776], "max": [0.23800000548362732, 0.5978999733924866, 0.17800000309944153], "bufferView": 0, "componentType": 5126, "byteOffset": 48, "type": "VEC3"}, {"count": 1635, "name": "AdeptusEasyPiecesNightstandBlack_1_normals", "min": [-0.9999989867210388, -0.999999463558197, -0.9999989867210388], "max": [0.9999989867210388, 0.9999990463256836, 1], "bufferView": 0, "componentType": 5126, "byteOffset": 19716, "type": "VEC3"}, {"count": 1635, "name": "AdeptusEasyPiecesNightstandBlack_1_texcoords", "min": [0.0010999999940395355, 0.022099999710917473], "max": [0.9975000023841858, 0.9990000128746033], "bufferView": 1, "componentType": 5126, "byteOffset": 32, "type": "VEC2"}, {"count": 6732, "name": "AdeptusEasyPiecesNightstandBlack_1_0_indices", "min": [0], "max": [1634], "bufferView": 2, "componentType": 5123, "byteOffset": 12, "type": "SCALAR"}], "samplers": [{"magFilter": 9729, "minFilter": 9986, "wrapS": 10497, "wrapT": 10497}], "scene": 0, "scenes": [{"nodes": [0, 1]}], "materials": [{"doubleSided": false, "alphaMode": "BLEND", "name": "Shadow", "emissiveFactor": [0, 0, 0], "pbrMetallicRoughness": {"roughnessFactor": 0.99, "baseColorTexture": {"index": 0}, "metallicFactor": 0, "baseColorFactor": [1, 1, 1, 1]}}, {"name": "m_1061046047_61046047", "pbrMetallicRoughness": {"metallicFactor": 1, "baseColorTexture": {"index": 1}, "metallicRoughnessTexture": {"index": 2}, "baseColorFactor": [1, 1, 1, 1], "roughnessFactor": 1}, "alphaMode": "OPAQUE", "doubleSided": true, "normalTexture": {"index": 3}, "emissiveFactor": [0, 0, 0]}], "asset": {"version": "2.0", "generator": "obj2gltf"}, "images": [{"name": "m_1061046047_61046047_Shadow", "uri": "m_1061046047_61046047_Shadow.png"}, {"name": "m_1061046047_61046047_Base", "uri": "m_1061046047_61046047_Base.jpg"}, {"name": "m_1061046047_61046047_Metallic_1061046047_61046047_Roughness", "uri": "m_1061046047_61046047_Metallic_1061046047_61046047_Roughness.png"}, {"name": "m_1061046047_61046047_Normal", "uri": "m_1061046047_61046047_Normal.jpg"}], "nodes": [{"mesh": 0, "name": "AdeptusEasyPiecesNightstandBlack_Shadow"}, {"mesh": 1, "name": "AdeptusEasyPiecesNightstandBlack"}], "bufferViews": [{"byteLength": 39336, "target": 34962, "byteStride": 12, "buffer": 0, "byteOffset": 0, "name": "bufferView_0"}, {"byteLength": 13112, "target": 34962, "byteStride": 8, "buffer": 0, "byteOffset": 39336, "name": "bufferView_1"}, {"buffer": 0, "byteLength": 13476, "target": 34963, "name": "bufferView_2", "byteOffset": 52448}], "buffers": [{"byteLength": 65924, "name": "m_1061046047_61046047", "uri": "1061046047_61046047.bin"}], "meshes": [{"primitives": [{"indices": 3, "attributes": {"POSITION": 0, "TEXCOORD_0": 2, "NORMAL": 1}, "material": 0, "mode": 4}], "name": "AdeptusEasyPiecesNightstandBlack_Shadow_1"}, {"primitives": [{"indices": 7, "attributes": {"POSITION": 4, "TEXCOORD_0": 6, "NORMAL": 5}, "material": 1, "mode": 4}], "name": "AdeptusEasyPiecesNightstandBlack_1"}]}