{
  "accessors": [
    {
      "name": "Table_Shadow_1_positions",
      "componentType": 5126,
      "count": 4,
      "min": [
        -0.30000001192092896,
        0,
        -0.30000001192092896
      ],
      "max": [
        0.30000001192092896,
        0,
        0.30000001192092896
      ],
      "type": "VEC3",
      "bufferView": 0,
      "byteOffset": 0
    },
    {
      "name": "Table_Shadow_1_normals",
      "componentType": 5126,
      "count": 4,
      "min": [
        0,
        1,
        0
      ],
      "max": [
        0,
        1,
        0
      ],
      "type": "VEC3",
      "bufferView": 0,
      "byteOffset": 231960
    },
    {
      "name": "Table_Shadow_1_texcoords",
      "componentType": 5126,
      "count": 4,
      "min": [
        0,
        0
      ],
      "max": [
        1,
        1
      ],
      "type": "VEC2",
      "bufferView": 1,
      "byteOffset": 0
    },
    {
      "name": "Table_Shadow_1_0_indices",
      "componentType": 5123,
      "count": 6,
      "min": [
        0
      ],
      "max": [
        3
      ],
      "type": "SCALAR",
      "bufferView": 2,
      "byteOffset": 0
    },
    {
      "name": "Table_1_positions",
      "componentType": 5126,
      "count": 19326,
      "min": [
        -0.2295999974012375,
        0,
        -0.2295999974012375
      ],
      "max": [
        0.2295999974012375,
        0.6583999991416931,
        0.2295999974012375
      ],
      "type": "VEC3",
      "bufferView": 0,
      "byteOffset": 48
    },
    {
      "name": "Table_1_normals",
      "componentType": 5126,
      "count": 19326,
      "min": [
        -0.9998999834060669,
        -1,
        -1
      ],
      "max": [
        0.9998999834060669,
        0.9998999834060669,
        1
      ],
      "type": "VEC3",
      "bufferView": 0,
      "byteOffset": 232008
    },
    {
      "name": "Table_1_texcoords",
      "componentType": 5126,
      "count": 19326,
      "min": [
        0.006500000134110451,
        0.003700000001117587
      ],
      "max": [
        0.996399998664856,
        0.9932000041007996
      ],
      "type": "VEC2",
      "bufferView": 1,
      "byteOffset": 32
    },
    {
      "name": "Table_1_0_indices",
      "componentType": 5123,
      "count": 101508,
      "min": [
        0
      ],
      "max": [
        19325
      ],
      "type": "SCALAR",
      "bufferView": 2,
      "byteOffset": 12
    }
  ],
  "asset": {
    "generator": "obj2gltf",
    "version": "2.0"
  },
  "buffers": [
    {
      "name": "3243705_40985558",
      "byteLength": 821588,
      "uri": "3243705_40985558.bin"
    }
  ],
  "bufferViews": [
    {
      "name": "bufferView_0",
      "buffer": 0,
      "byteLength": 463920,
      "byteOffset": 0,
      "byteStride": 12,
      "target": 34962
    },
    {
      "name": "bufferView_1",
      "buffer": 0,
      "byteLength": 154640,
      "byteOffset": 463920,
      "byteStride": 8,
      "target": 34962
    },
    {
      "name": "bufferView_2",
      "buffer": 0,
      "byteLength": 203028,
      "byteOffset": 618560,
      "target": 34963
    }
  ],
  "images": [
    {
      "name": "shadow_3243705_40985558",
      "uri": "shadow_3243705_40985558.png"
    },
    {
      "name": "base_3243705_40985558",
      "uri": "base_3243705_40985558.jpg"
    },
    {
      "name": "m_3243705_40985558_Metallic_3243705_40985558_Roughness",
      "uri": "m_3243705_40985558_Metallic_3243705_40985558_Roughness.png"
    },
    {
      "name": "m_3243705_40985558_Normal",
      "uri": "m_3243705_40985558_Normal.jpg"
    }
  ],
  "materials": [
    {
      "name": "shadow_3243705_40985558",
      "pbrMetallicRoughness": {
        "baseColorTexture": {
          "index": 0
        },
        "baseColorFactor": [
          1,
          1,
          1,
          1
        ],
        "metallicFactor": 0,
        "roughnessFactor": 0.999
      },
      "emissiveFactor": [
        0,
        0,
        0
      ],
      "alphaMode": "BLEND",
      "doubleSided": false
    },
    {
      "name": "3243705_40985558",
      "pbrMetallicRoughness": {
        "baseColorTexture": {
          "index": 1
        },
        "metallicRoughnessTexture": {
          "index": 2
        },
        "baseColorFactor": [
          1,
          1,
          1,
          1
        ],
        "metallicFactor": 1,
        "roughnessFactor": 1
      },
      "normalTexture": {
        "index": 3
      },
      "emissiveFactor": [
        0,
        0,
        0
      ],
      "alphaMode": "OPAQUE",
      "doubleSided": true
    }
  ],
  "meshes": [
    {
      "name": "Table_Shadow_1",
      "primitives": [
        {
          "attributes": {
            "POSITION": 0,
            "NORMAL": 1,
            "TEXCOORD_0": 2
          },
          "indices": 3,
          "material": 0,
          "mode": 4
        }
      ]
    },
    {
      "name": "Table_1",
      "primitives": [
        {
          "attributes": {
            "POSITION": 4,
            "NORMAL": 5,
            "TEXCOORD_0": 6
          },
          "indices": 7,
          "material": 1,
          "mode": 4
        }
      ]
    }
  ],
  "nodes": [
    {
      "name": "Table_Shadow",
      "mesh": 0
    },
    {
      "name": "Table",
      "mesh": 1
    }
  ],
  "samplers": [
    {
      "magFilter": 9729,
      "minFilter": 9986,
      "wrapS": 10497,
      "wrapT": 10497
    }
  ],
  "scene": 0,
  "scenes": [
    {
      "nodes": [
        0,
        1
      ]
    }
  ],
  "textures": [
    {
      "name": "shadow_3243705_40985558",
      "sampler": 0,
      "source": 0
    },
    {
      "name": "base_3243705_40985558",
      "sampler": 0,
      "source": 1
    },
    {
      "name": "m_3243705_40985558_Metallic_3243705_40985558_Roughness",
      "sampler": 0,
      "source": 2
    },
    {
      "name": "m_3243705_40985558_Normal",
      "sampler": 0,
      "source": 3
    }
  ]
}
