{"textures": [{"source": 0, "name": "1061520714_61520714_Shadow", "sampler": 0}, {"source": 1, "name": "1061520714_61520714_Base", "sampler": 0}, {"source": 2, "name": "1061520714_61520714_Metallic_1061520714_61520714_Roughness", "sampler": 0}, {"source": 3, "name": "1061520714_61520714_Normal", "sampler": 0}], "accessors": [{"count": 4, "name": "Lamp_Shadow_1_positions", "min": [-0.6499999761581421, -0.6499999761581421, 0], "max": [0.6499999761581421, 0.6499999761581421, 0], "bufferView": 0, "componentType": 5126, "byteOffset": 0, "type": "VEC3"}, {"count": 4, "name": "Lamp_Shadow_1_normals", "min": [0, 0, 1], "max": [0, 0, 1], "bufferView": 0, "componentType": 5126, "byteOffset": 236436, "type": "VEC3"}, {"count": 4, "name": "Lamp_Shadow_1_texcoords", "min": [0, 0], "max": [1, 1], "bufferView": 1, "componentType": 5126, "byteOffset": 0, "type": "VEC2"}, {"count": 6, "name": "Lamp_Shadow_1_0_indices", "min": [0], "max": [3], "bufferView": 2, "componentType": 5123, "byteOffset": 0, "type": "SCALAR"}, {"count": 19699, "name": "Lamp_1_positions", "min": [-0.08420000225305557, -0.5857999920845032, 0], "max": [0.08420000225305557, 0.04569999873638153, 0.2492000013589859], "bufferView": 0, "componentType": 5126, "byteOffset": 48, "type": "VEC3"}, {"count": 19699, "name": "Lamp_1_normals", "min": [-1, -1, -0.9998288750648499], "max": [1, 1, 1], "bufferView": 0, "componentType": 5126, "byteOffset": 236484, "type": "VEC3"}, {"count": 19699, "name": "Lamp_1_texcoords", "min": [0, 0.005200000014156103], "max": [1, 1], "bufferView": 1, "componentType": 5126, "byteOffset": 32, "type": "VEC2"}, {"count": 84624, "name": "Lamp_1_0_indices", "min": [0], "max": [19698], "bufferView": 2, "componentType": 5123, "byteOffset": 12, "type": "SCALAR"}, {"count": 14748, "name": "Lamp_1_1_indices", "min": [11873], "max": [14756], "bufferView": 2, "componentType": 5123, "byteOffset": 169260, "type": "SCALAR"}], "samplers": [{"magFilter": 9729, "minFilter": 9986, "wrapS": 10497, "wrapT": 10497}], "scene": 0, "scenes": [{"nodes": [0, 1]}], "materials": [{"doubleSided": false, "alphaMode": "BLEND", "name": "1061520714_61520714_Shadow", "emissiveFactor": [0, 0, 0], "pbrMetallicRoughness": {"roughnessFactor": 0.99, "baseColorTexture": {"index": 0}, "metallicFactor": 0, "baseColorFactor": [1, 1, 1, 1]}}, {"name": "1061520714_61520714", "pbrMetallicRoughness": {"metallicFactor": 1, "baseColorTexture": {"index": 1}, "metallicRoughnessTexture": {"index": 2}, "baseColorFactor": [1, 1, 1, 1], "roughnessFactor": 1}, "alphaMode": "OPAQUE", "doubleSided": true, "normalTexture": {"index": 3}, "emissiveFactor": [0, 0, 0]}, {"name": "1061520714_61520714_Blend", "pbrMetallicRoughness": {"metallicFactor": 1, "baseColorTexture": {"index": 1}, "metallicRoughnessTexture": {"index": 2}, "baseColorFactor": [1, 1, 1, 1], "roughnessFactor": 1}, "alphaMode": "BLEND", "doubleSided": false, "normalTexture": {"index": 3}, "emissiveFactor": [0, 0, 0]}], "asset": {"version": "2.0", "generator": "obj2gltf"}, "images": [{"name": "1061520714_61520714_Shadow", "uri": "1061520714_61520714_Shadow.png"}, {"name": "1061520714_61520714_Base", "uri": "1061520714_61520714_Base.png"}, {"name": "1061520714_61520714_Metallic_1061520714_61520714_Roughness", "uri": "1061520714_61520714_Metallic_1061520714_61520714_Roughness.png"}, {"name": "1061520714_61520714_Normal", "uri": "1061520714_61520714_Normal.png"}], "nodes": [{"mesh": 0, "name": "Lamp_Shadow"}, {"mesh": 1, "name": "Lamp"}], "bufferViews": [{"byteLength": 472872, "target": 34962, "byteStride": 12, "buffer": 0, "byteOffset": 0, "name": "bufferView_0"}, {"byteLength": 157624, "target": 34962, "byteStride": 8, "buffer": 0, "byteOffset": 472872, "name": "bufferView_1"}, {"buffer": 0, "byteLength": 198756, "target": 34963, "name": "bufferView_2", "byteOffset": 630496}], "buffers": [{"byteLength": 829252, "name": "1061520714_61520714", "uri": "1061520714_61520714.bin"}], "meshes": [{"primitives": [{"indices": 3, "attributes": {"POSITION": 0, "TEXCOORD_0": 2, "NORMAL": 1}, "material": 0, "mode": 4}], "name": "Lamp_Shadow_1"}, {"primitives": [{"indices": 7, "attributes": {"POSITION": 4, "TEXCOORD_0": 6, "NORMAL": 5}, "material": 1, "mode": 4}, {"indices": 8, "attributes": {"POSITION": 4, "TEXCOORD_0": 6, "NORMAL": 5}, "material": 2, "mode": 4}], "name": "Lamp_1"}]}