{"textures": [{"source": 0, "name": "1013588384_13588384_Base", "sampler": 0}, {"source": 1, "name": "1013588384_13588384_Metallic_1013588384_13588384_Roughness", "sampler": 0}, {"source": 2, "name": "1013588384_13588384_Normal", "sampler": 0}, {"source": 3, "name": "1013588384_13588384_Shadow", "sampler": 0}], "accessors": [{"count": 14784, "name": "lamp_1_positions", "min": [-0.18050000071525574, 0, -0.18019999563694], "max": [0.18050000071525574, 0.6388000249862671, 0.18019999563694], "bufferView": 0, "componentType": 5126, "byteOffset": 0, "type": "VEC3"}, {"count": 14784, "name": "lamp_1_normals", "min": [-1, -1, -1], "max": [1, 1, 1], "bufferView": 0, "componentType": 5126, "byteOffset": 177456, "type": "VEC3"}, {"count": 14784, "name": "lamp_1_texcoords", "min": [0.0005000000237487257, 0.0005000000237487257], "max": [0.9965000152587891, 0.9994999766349792], "bufferView": 1, "componentType": 5126, "byteOffset": 0, "type": "VEC2"}, {"count": 71547, "name": "lamp_1_0_indices", "min": [0], "max": [14783], "bufferView": 2, "componentType": 5123, "byteOffset": 0, "type": "SCALAR"}, {"count": 3108, "name": "lamp_1_1_indices", "min": [13109], "max": [13660], "bufferView": 2, "componentType": 5123, "byteOffset": 143096, "type": "SCALAR"}, {"count": 4, "name": "lamp_Shadow_1_positions", "min": [-0.20000000298023224, 0, -0.20000000298023224], "max": [0.20000000298023224, 0, 0.20000000298023224], "bufferView": 0, "componentType": 5126, "byteOffset": 177408, "type": "VEC3"}, {"count": 4, "name": "lamp_Shadow_1_normals", "min": [0, 1, 0], "max": [0, 1, 0], "bufferView": 0, "componentType": 5126, "byteOffset": 354864, "type": "VEC3"}, {"count": 4, "name": "lamp_Shadow_1_texcoords", "min": [0.0005000000237487257, 0.0005000000237487257], "max": [0.9994999766349792, 0.9994999766349792], "bufferView": 1, "componentType": 5126, "byteOffset": 118272, "type": "VEC2"}, {"count": 6, "name": "lamp_Shadow_1_0_indices", "min": [0], "max": [3], "bufferView": 2, "componentType": 5123, "byteOffset": 149312, "type": "SCALAR"}], "samplers": [{"magFilter": 9729, "minFilter": 9986, "wrapS": 10497, "wrapT": 10497}], "scene": 0, "scenes": [{"nodes": [0, 1]}], "materials": [{"name": "lamp", "pbrMetallicRoughness": {"metallicFactor": 1, "baseColorTexture": {"index": 0}, "metallicRoughnessTexture": {"index": 1}, "baseColorFactor": [1, 1, 1, 1], "roughnessFactor": 1}, "alphaMode": "OPAQUE", "doubleSided": true, "normalTexture": {"index": 2}, "emissiveFactor": [0, 0, 0]}, {"name": "lamp_Blend", "pbrMetallicRoughness": {"metallicFactor": 1, "baseColorTexture": {"index": 0}, "metallicRoughnessTexture": {"index": 1}, "baseColorFactor": [1, 1, 1, 1], "roughnessFactor": 1}, "alphaMode": "BLEND", "doubleSided": true, "normalTexture": {"index": 2}, "emissiveFactor": [0, 0, 0]}, {"doubleSided": false, "alphaMode": "BLEND", "name": "Shadow", "emissiveFactor": [0, 0, 0], "pbrMetallicRoughness": {"roughnessFactor": 0.99, "baseColorTexture": {"index": 3}, "metallicFactor": 0, "baseColorFactor": [1, 1, 1, 1]}}], "asset": {"version": "2.0", "generator": "obj2gltf"}, "images": [{"name": "1013588384_13588384_Base", "uri": "1013588384_13588384_Base.png"}, {"name": "1013588384_13588384_Metallic_1013588384_13588384_Roughness", "uri": "1013588384_13588384_Metallic_1013588384_13588384_Roughness.png"}, {"name": "1013588384_13588384_Normal", "uri": "1013588384_13588384_Normal.png"}, {"name": "1013588384_13588384_Shadow", "uri": "1013588384_13588384_Shadow.png"}], "nodes": [{"mesh": 0, "name": "lamp"}, {"mesh": 1, "name": "lamp_Shadow"}], "bufferViews": [{"byteLength": 354912, "target": 34962, "byteStride": 12, "buffer": 0, "byteOffset": 0, "name": "bufferView_0"}, {"byteLength": 118304, "target": 34962, "byteStride": 8, "buffer": 0, "byteOffset": 354912, "name": "bufferView_1"}, {"buffer": 0, "byteLength": 149324, "target": 34963, "name": "bufferView_2", "byteOffset": 473216}], "buffers": [{"byteLength": 622540, "name": "1013588384_13588384", "uri": "1013588384_13588384.bin"}], "meshes": [{"primitives": [{"indices": 3, "attributes": {"POSITION": 0, "TEXCOORD_0": 2, "NORMAL": 1}, "material": 0, "mode": 4}, {"indices": 4, "attributes": {"POSITION": 0, "TEXCOORD_0": 2, "NORMAL": 1}, "material": 1, "mode": 4}], "name": "lamp_1"}, {"primitives": [{"indices": 8, "attributes": {"POSITION": 5, "TEXCOORD_0": 7, "NORMAL": 6}, "material": 2, "mode": 4}], "name": "lamp_Shadow_1"}]}