{"textures": [{"source": 0, "name": "1047488687_47488687_Base", "sampler": 0}, {"source": 1, "name": "1047488687_47488687_Metallic_1047488687_47488687_Roughness", "sampler": 0}, {"source": 2, "name": "1047488687_47488687_Normal", "sampler": 0}, {"source": 3, "name": "1047488687_47488687_Shadow", "sampler": 0}], "accessors": [{"count": 17595, "name": "BulovaBellmanTableClock_1_positions", "min": [-0.06889999657869339, -0.00039999998989515007, -0.028599999845027924], "max": [0.06889999657869339, 0.18400000035762787, 0.028599999845027924], "bufferView": 0, "componentType": 5126, "byteOffset": 0, "type": "VEC3"}, {"count": 17595, "name": "BulovaBellmanTableClock_1_normals", "min": [-1, -1, -1], "max": [1, 1, 1], "bufferView": 0, "componentType": 5126, "byteOffset": 211188, "type": "VEC3"}, {"count": 17595, "name": "BulovaBellmanTableClock_1_texcoords", "min": [0.0017000000225380063, 0.033900000154972076], "max": [0.9983000159263611, 0.9983000159263611], "bufferView": 1, "componentType": 5126, "byteOffset": 0, "type": "VEC2"}, {"count": 79824, "name": "BulovaBellmanTableClock_1_0_indices", "min": [0], "max": [17594], "bufferView": 2, "componentType": 5123, "byteOffset": 0, "type": "SCALAR"}, {"count": 1296, "name": "BulovaBellmanTableClock_1_1_indices", "min": [10309], "max": [10562], "bufferView": 2, "componentType": 5123, "byteOffset": 159648, "type": "SCALAR"}, {"count": 4, "name": "BulovaBellmanTableClock_Shadow_1_positions", "min": [-0.12049999833106995, 0, -0.12049999833106995], "max": [0.12049999833106995, 0, 0.12049999833106995], "bufferView": 0, "componentType": 5126, "byteOffset": 211140, "type": "VEC3"}, {"count": 4, "name": "BulovaBellmanTableClock_Shadow_1_normals", "min": [0, 1, 0], "max": [0, 1, 0], "bufferView": 0, "componentType": 5126, "byteOffset": 422328, "type": "VEC3"}, {"count": 4, "name": "BulovaBellmanTableClock_Shadow_1_texcoords", "min": [0, 0], "max": [1, 1], "bufferView": 1, "componentType": 5126, "byteOffset": 140760, "type": "VEC2"}, {"count": 6, "name": "BulovaBellmanTableClock_Shadow_1_0_indices", "min": [0], "max": [3], "bufferView": 2, "componentType": 5123, "byteOffset": 162240, "type": "SCALAR"}], "samplers": [{"magFilter": 9729, "minFilter": 9986, "wrapS": 10497, "wrapT": 10497}], "scene": 0, "scenes": [{"nodes": [0, 1]}], "materials": [{"name": "1047488687_47488687", "pbrMetallicRoughness": {"metallicFactor": 1, "baseColorTexture": {"index": 0}, "metallicRoughnessTexture": {"index": 1}, "baseColorFactor": [1, 1, 1, 1], "roughnessFactor": 1}, "alphaMode": "OPAQUE", "doubleSided": true, "normalTexture": {"index": 2}, "emissiveFactor": [0, 0, 0]}, {"name": "1047488687_47488687_Blend", "pbrMetallicRoughness": {"metallicFactor": 1, "baseColorTexture": {"index": 0}, "metallicRoughnessTexture": {"index": 1}, "baseColorFactor": [1, 1, 1, 1], "roughnessFactor": 1}, "alphaMode": "BLEND", "doubleSided": true, "normalTexture": {"index": 2}, "emissiveFactor": [0, 0, 0]}, {"doubleSided": false, "alphaMode": "BLEND", "name": "1047488687_47488687_Shadow", "emissiveFactor": [0, 0, 0], "pbrMetallicRoughness": {"roughnessFactor": 0.99, "baseColorTexture": {"index": 3}, "metallicFactor": 0, "baseColorFactor": [1, 1, 1, 1]}}], "asset": {"version": "2.0", "generator": "obj2gltf"}, "images": [{"name": "1047488687_47488687_Base", "uri": "1047488687_47488687_Base.png"}, {"name": "1047488687_47488687_Metallic_1047488687_47488687_Roughness", "uri": "1047488687_47488687_Metallic_1047488687_47488687_Roughness.png"}, {"name": "1047488687_47488687_Normal", "uri": "1047488687_47488687_Normal.png"}, {"name": "1047488687_47488687_Shadow", "uri": "1047488687_47488687_Shadow.png"}], "nodes": [{"mesh": 0, "name": "BulovaBellmanTableClock"}, {"mesh": 1, "name": "BulovaBellmanTableClock_Shadow"}], "bufferViews": [{"byteLength": 422376, "target": 34962, "byteStride": 12, "buffer": 0, "byteOffset": 0, "name": "bufferView_0"}, {"byteLength": 140792, "target": 34962, "byteStride": 8, "buffer": 0, "byteOffset": 422376, "name": "bufferView_1"}, {"buffer": 0, "byteLength": 162252, "target": 34963, "name": "bufferView_2", "byteOffset": 563168}], "buffers": [{"byteLength": 725420, "name": "1047488687_47488687", "uri": "1047488687_47488687.bin"}], "meshes": [{"primitives": [{"indices": 3, "attributes": {"POSITION": 0, "TEXCOORD_0": 2, "NORMAL": 1}, "material": 0, "mode": 4}, {"indices": 4, "attributes": {"POSITION": 0, "TEXCOORD_0": 2, "NORMAL": 1}, "material": 1, "mode": 4}], "name": "BulovaBellmanTableClock_1"}, {"primitives": [{"indices": 8, "attributes": {"POSITION": 5, "TEXCOORD_0": 7, "NORMAL": 6}, "material": 2, "mode": 4}], "name": "BulovaBellmanTableClock_Shadow_1"}]}