{"textures": [{"source": 0, "name": "3324972_61494152_Shadow", "sampler": 0}, {"source": 1, "name": "3324972_61494152_Base", "sampler": 0}, {"source": 2, "name": "3324972_61494152_Metallic_3324972_61494152_Roughness", "sampler": 0}, {"source": 3, "name": "3324972_61494152_Normal", "sampler": 0}], "accessors": [{"count": 4, "name": "Chair_Shadow_1_positions", "min": [-0.3898000121116638, 0, -0.3898000121116638], "max": [0.3898000121116638, 0, 0.3898000121116638], "bufferView": 0, "componentType": 5126, "byteOffset": 0, "type": "VEC3"}, {"count": 4, "name": "Chair_Shadow_1_normals", "min": [0, 1, 0], "max": [0, 1, 0], "bufferView": 0, "componentType": 5126, "byteOffset": 315480, "type": "VEC3"}, {"count": 4, "name": "Chair_Shadow_1_texcoords", "min": [0, 0], "max": [1, 1], "bufferView": 1, "componentType": 5126, "byteOffset": 0, "type": "VEC2"}, {"count": 6, "name": "Chair_Shadow_1_0_indices", "min": [0], "max": [3], "bufferView": 2, "componentType": 5123, "byteOffset": 0, "type": "SCALAR"}, {"count": 26286, "name": "Chair_1_positions", "min": [-0.23980000615119934, 0, -0.25999999046325684], "max": [0.23980000615119934, 0.9602000117301941, 0.29120001196861267], "bufferView": 0, "componentType": 5126, "byteOffset": 48, "type": "VEC3"}, {"count": 26286, "name": "Chair_1_normals", "min": [-1, -1, -0.9999761581420898], "max": [1, 0.999961256980896, 1], "bufferView": 0, "componentType": 5126, "byteOffset": 315528, "type": "VEC3"}, {"count": 26286, "name": "Chair_1_texcoords", "min": [0.003000000026077032, 0.15569999814033508], "max": [0.996999979019165, 0.996999979019165], "bufferView": 1, "componentType": 5126, "byteOffset": 32, "type": "VEC2"}, {"count": 151686, "name": "Chair_1_0_indices", "min": [0], "max": [26285], "bufferView": 2, "componentType": 5123, "byteOffset": 12, "type": "SCALAR"}], "samplers": [{"magFilter": 9729, "minFilter": 9986, "wrapS": 10497, "wrapT": 10497}], "scene": 0, "scenes": [{"nodes": [0, 1]}], "materials": [{"doubleSided": false, "alphaMode": "BLEND", "name": "Shadow", "emissiveFactor": [0, 0, 0], "pbrMetallicRoughness": {"roughnessFactor": 0.99, "baseColorTexture": {"index": 0}, "metallicFactor": 0, "baseColorFactor": [1, 1, 1, 1]}}, {"name": "3324972_61494152", "pbrMetallicRoughness": {"metallicFactor": 1, "baseColorTexture": {"index": 1}, "metallicRoughnessTexture": {"index": 2}, "baseColorFactor": [1, 1, 1, 1], "roughnessFactor": 1}, "alphaMode": "OPAQUE", "doubleSided": true, "normalTexture": {"index": 3}, "emissiveFactor": [0, 0, 0]}], "asset": {"version": "2.0", "generator": "obj2gltf"}, "images": [{"name": "3324972_61494152_Shadow", "uri": "3324972_61494152_Shadow.png"}, {"name": "3324972_61494152_Base", "uri": "3324972_61494152_Base.jpg"}, {"name": "3324972_61494152_Metallic_3324972_61494152_Roughness", "uri": "3324972_61494152_Metallic_3324972_61494152_Roughness.png"}, {"name": "3324972_61494152_Normal", "uri": "3324972_61494152_Normal.jpg"}], "nodes": [{"mesh": 0, "name": "Chair_Shadow"}, {"mesh": 1, "name": "Chair"}], "bufferViews": [{"byteLength": 630960, "target": 34962, "byteStride": 12, "buffer": 0, "byteOffset": 0, "name": "bufferView_0"}, {"byteLength": 210320, "target": 34962, "byteStride": 8, "buffer": 0, "byteOffset": 630960, "name": "bufferView_1"}, {"buffer": 0, "byteLength": 303384, "target": 34963, "name": "bufferView_2", "byteOffset": 841280}], "buffers": [{"byteLength": 1144664, "name": "3324972_61494152", "uri": "3324972_61494152.bin"}], "meshes": [{"primitives": [{"indices": 3, "attributes": {"POSITION": 0, "TEXCOORD_0": 2, "NORMAL": 1}, "material": 0, "mode": 4}], "name": "Chair_Shadow_1"}, {"primitives": [{"indices": 7, "attributes": {"POSITION": 4, "TEXCOORD_0": 6, "NORMAL": 5}, "material": 1, "mode": 4}], "name": "Chair_1"}]}